<?xml version="1.0" standalone="no"?><!DOCTYPE svg PUBLIC "-//W3C//DTD SVG 1.1//EN" "http://www.w3.org/Graphics/SVG/1.1/DTD/svg11.dtd"><svg t="1598154788924" class="icon" viewBox="0 0 1024 1024" version="1.1" xmlns="http://www.w3.org/2000/svg" p-id="3751" xmlns:xlink="http://www.w3.org/1999/xlink" width="64" height="64"><defs><style type="text/css"></style></defs><path d="M734.766596 342.259084l-4.578272 0 0-58.112536c0-121.318066-98.717326-220.028229-220.042555-220.028229-121.353882 0-220.071208 98.709139-220.071208 220.028229l0 58.112536-4.579295 0c-47.394427 0-85.972047 38.573527-85.972047 85.964884l0 348.636329c0 47.38931 38.576597 85.962837 85.972047 85.962837l449.27133 0c47.394427 0 85.972047-38.573527 85.972047-85.962837L820.738643 428.223968C820.738643 380.832611 782.162046 342.259084 734.766596 342.259084zM347.95276 284.146549c0-89.413426 72.773444-162.152077 162.193009-162.152077 89.418542 0 162.164357 72.738651 162.164357 162.152077l0 58.112536L347.95276 342.259084 347.95276 284.146549zM762.858398 776.860297c0 15.483646-12.604062 28.086685-28.091802 28.086685L285.495266 804.946982c-15.487739 0-28.091802-12.603039-28.091802-28.086685L257.403464 428.223968c0-15.485693 12.604062-28.090778 28.091802-28.090778l449.27133 0c15.487739 0 28.091802 12.604062 28.091802 28.090778L762.858398 776.860297z" p-id="3752" fill="#00B79E"></path><path d="M524.600993 532.86112l0-44.86686c0-7.998161-6.471388-14.471596-14.46955-14.471596s-14.46955 6.472412-14.46955 14.471596l0 44.86686c-32.990369 6.722098-57.879222 35.935444-57.879222 70.882374 0 34.94386 24.888853 64.159252 57.879222 70.88135l0 44.86686c0 7.998161 6.471388 14.46955 14.46955 14.46955s14.46955-6.471388 14.46955-14.46955l0-44.86686c32.990369-6.722098 57.879222-35.93749 57.879222-70.88135C582.480214 568.796564 557.591361 539.583219 524.600993 532.86112zM510.131443 647.14805c-23.937179 0-43.409672-19.470447-43.409672-43.404556 0-23.936155 19.472494-43.406602 43.409672-43.406602s43.409672 19.470447 43.409672 43.406602C553.541115 627.677603 534.068621 647.14805 510.131443 647.14805z" p-id="3753" fill="#00B79E"></path></svg>