<?xml version="1.0" standalone="no"?><!DOCTYPE svg PUBLIC "-//W3C//DTD SVG 1.1//EN" "http://www.w3.org/Graphics/SVG/1.1/DTD/svg11.dtd"><svg t="1599463487182" class="icon" viewBox="0 0 1024 1024" version="1.1" xmlns="http://www.w3.org/2000/svg" p-id="13524" xmlns:xlink="http://www.w3.org/1999/xlink" width="64" height="64"><defs><style type="text/css"></style></defs><path d="M903.42 644.102h-33.8v-90.139c0-45.07-39.436-84.505-84.506-84.505H537.231v-84.506h61.97c33.802 0 56.337-22.535 56.337-56.337V148.337c0-33.802-22.535-56.337-56.337-56.337H418.923c-33.802 0-56.337 22.535-56.337 56.337v180.278c0 33.802 22.535 56.337 56.337 56.337h61.97v84.506H238.646c-45.07 0-84.506 39.436-84.506 84.505v90.14h-33.802C86.535 644.102 64 672.27 64 700.438V824.38c0 33.802 28.168 56.337 56.337 56.337h123.941c33.803 0 56.337-28.169 56.337-56.337V700.439c0-33.802-28.168-56.337-56.337-56.337h-33.802v-90.139c0-16.9 11.268-28.168 28.169-28.168h242.249v118.307H447.09c-33.802 0-56.337 22.535-56.337 56.337v123.942c0 33.802 22.535 56.337 56.337 56.337h123.942c33.802 0 56.337-22.535 56.337-56.337V700.439c0-33.802-22.535-56.337-56.337-56.337H537.23V525.795h247.882c16.901 0 28.169 11.267 28.169 28.168v90.14H779.48c-33.803 0-56.337 28.168-56.337 56.336v123.942c0 33.802 28.168 56.337 56.337 56.337h123.94c33.803 0 56.338-28.169 56.338-56.337V700.439c0-33.802-28.169-56.337-56.337-56.337zM418.924 148.337h180.278v180.278H418.923V148.337zM244.278 824.381H120.337V700.439h123.941v123.942z m326.755 0H447.09V700.439h123.942v123.942z m332.388 0H779.48V700.439h123.94v123.942z" p-id="13525" fill="#00B79E"></path></svg>