<?xml version="1.0" standalone="no"?><!DOCTYPE svg PUBLIC "-//W3C//DTD SVG 1.1//EN" "http://www.w3.org/Graphics/SVG/1.1/DTD/svg11.dtd"><svg t="1598154706396" class="icon" viewBox="0 0 1024 1024" version="1.1" xmlns="http://www.w3.org/2000/svg" p-id="3469" xmlns:xlink="http://www.w3.org/1999/xlink" width="64" height="64"><defs><style type="text/css"></style></defs><path d="M512 128c108.8 0 192 83.2 192 192S620.8 512 512 512 320 428.8 320 320s83.2-192 192-192z m0 64c-70.4 0-128 57.6-128 128s57.6 128 128 128 128-57.6 128-128-57.6-128-128-128z m0 358.4c192 0 384 89.6 384 224v96c0 19.2-12.8 32-32 32h-704c-19.2-6.4-32-19.2-32-38.4V768c0-128 192-217.6 384-217.6z m320 217.6c0-83.2-140.8-160-320-160S192 684.8 192 768v64h640v-64z" p-id="3470" fill="#00B79E"></path></svg>